<svg xmlns="http://www.w3.org/2000/svg" version="1.1" xmlns:xlink="http://www.w3.org/1999/xlink" xmlns:svgjs="http://svgjs.com/svgjs" width="1030" height="400" preserveAspectRatio="none" viewBox="0 0 1030 400">
    <g mask="url(&quot;#SvgjsMask1206&quot;)" fill="none">
        <rect width="1030" height="400" x="0" y="0" fill="url(#SvgjsLinearGradient1207)"></rect>
        <path d="M1047.1666666666667 400L0 400 L0 210.25Q18.11 176.86, 51.5 194.96Q86.75 144.37, 137.33333333333334 179.62Q178.79 169.58, 188.83333333333334 211.04Q192.33 163.03, 240.33333333333334 166.53Q289.36 129.73, 326.1666666666667 178.76Q374.78 141.54, 412 190.15Q462.42 154.73, 497.83333333333337 205.15Q542.22 198.04, 549.3333333333334 242.43Q562.97 170.23, 635.1666666666667 183.86Q668.73 131.59, 721.0000000000001 165.16Q764.86 157.52, 772.5000000000001 201.38Q792.09 169.47, 824.0000000000001 189.05Q862.02 175.57, 875.5000000000001 213.59Q926.07 178.32, 961.3333333333335 228.89Q970.08 151.8, 1047.1666666666667 160.55z" fill="#182f5d"></path>
        <path d="M1064.3333333333335 400L0 400 L0 272.74Q14.62 235.86, 51.5 250.47Q84.23 197.36, 137.33333333333334 230.09Q204.61 211.53, 223.16666666666669 278.81Q255.63 259.77, 274.6666666666667 292.23Q283.36 215.09, 360.5 223.78Q409.4 186.85, 446.33333333333337 235.75Q490.66 228.57, 497.83333333333337 272.9Q551.37 240.6, 583.6666666666667 294.13Q597.28 221.91, 669.5000000000001 235.52Q687.96 202.48, 721.0000000000001 220.94Q781.84 195.95, 806.8333333333335 256.79Q860.76 224.88, 892.6666666666669 278.81Q948.07 248.38, 978.5000000000002 303.79Q996.34 235.79, 1064.3333333333335 253.63z" fill="#25467d"></path>
        <path d="M1064.3333333333335 400L0 400 L0 287.29Q45.8 281.59, 51.5 327.38Q71.63 296, 103 316.13Q163.67 290.97, 188.83333333333334 351.64Q204.97 316.27, 240.33333333333334 332.41Q274.4 280.64, 326.1666666666667 314.71Q369.04 306.08, 377.6666666666667 348.96Q397.7 317.49, 429.1666666666667 337.52Q461.49 284.01, 515 316.34Q556.89 306.74, 566.5 348.63Q615.62 311.92, 652.3333333333334 361.04Q664.78 321.99, 703.8333333333334 334.44Q703.02 282.13, 755.3333333333334 281.32Q804.5 244.66, 841.1666666666667 293.83Q878.11 279.27, 892.6666666666667 316.22Q956.74 294.46, 978.5000000000001 358.54Q983.69 277.9, 1064.3333333333335 283.09z" fill="#356cb1"></path>
        <path d="M1030.0000000000002 400L0 400 L0 362.83Q15.04 326.37, 51.5 341.4Q111.68 315.74, 137.33333333333334 375.92Q174.6 361.69, 188.83333333333334 398.96Q203.59 327.89, 274.6666666666667 342.65Q327.07 309.22, 360.5 361.62Q418.09 333.38, 446.33333333333337 390.97Q499.32 358.12, 532.1666666666667 411.11Q555.17 348.28, 618.0000000000001 371.29Q635.07 336.86, 669.5000000000001 353.92Q710.05 342.97, 721.0000000000001 383.52Q743.67 320.36, 806.8333333333335 343.03Q843.53 328.23, 858.3333333333335 364.93Q929.19 349.95, 944.1666666666669 420.8Q951.2 342, 1030.0000000000002 349.04z" fill="rgba(248, 248, 255, 1)"></path>
    </g>
    <defs>
        <mask id="SvgjsMask1206">
            <rect width="1030" height="400" fill="#ffffff"></rect>
        </mask>
        <linearGradient x1="50%" y1="0%" x2="50%" y2="100%" gradientUnits="userSpaceOnUse" id="SvgjsLinearGradient1207">
            <stop stop-color="#0e2a47" offset="0"></stop>
            <stop stop-color="#00459e" offset="1"></stop>
        </linearGradient>
    </defs>
</svg>