<svg xmlns="http://www.w3.org/2000/svg" version="1.1" xmlns:xlink="http://www.w3.org/1999/xlink" xmlns:svgjs="http://svgjs.com/svgjs" width="1024" height="560" preserveAspectRatio="none" viewBox="0 0 1024 560"><g mask="url(&quot;#SvgjsMask1077&quot;)" fill="none"><rect width="1024" height="560" x="0" y="0" fill="url(#SvgjsLinearGradient1078)"></rect><path d="M1075.2000000000003 560L0 560 L0 311.12Q-4.87 255.05, 51.2 250.19Q71.99 219.78, 102.4 240.56Q160.82 213.65, 187.73333333333335 272.07Q222.09 255.23, 238.93333333333334 289.59Q292.64 257.96, 324.26666666666665 311.67Q355.54 291.74, 375.46666666666664 323.01Q387.98 284.32, 426.66666666666663 296.84Q460.27 279.25, 477.8666666666666 312.85Q512.46 296.24, 529.0666666666666 330.83Q539.51 255.94, 614.4 266.39Q627.13 227.91, 665.6 240.64Q747.78 237.48, 750.9333333333334 319.66Q788.22 305.75, 802.1333333333334 343.03Q839.5 295.06, 887.4666666666668 332.43Q884.62 278.38, 938.6666666666669 275.53Q957.71 243.37, 989.8666666666669 262.41Q1058.27 245.48, 1075.2000000000003 313.89z" fill="#182f5d"></path><path d="M1058.1333333333337 560L0 560 L0 366.32Q2.47 317.58, 51.2 320.05Q99.46 282.97, 136.53333333333333 331.23Q180.55 324.05, 187.73333333333335 368.07Q220.68 315.68, 273.06666666666666 348.62Q306.05 296.27, 358.4 329.26Q395.66 281.19, 443.7333333333333 318.45Q491.43 314.94, 494.9333333333333 362.64Q544.84 327.21, 580.2666666666667 377.12Q619.3 364.95, 631.4666666666667 403.98Q665.77 387.08, 682.6666666666667 421.39Q687.13 374.65, 733.8666666666668 379.11Q751.5 311.41, 819.2000000000002 329.05Q876.56 301.08, 904.5333333333335 358.44Q943.07 345.78, 955.7333333333336 384.32Q958.37 335.76, 1006.9333333333336 338.4Q1025.6 305.86, 1058.1333333333337 324.53z" fill="#25467d"></path><path d="M1024.0000000000002 560L0 560 L0 414.21Q78.73 407.61, 85.33333333333333 486.34Q99.98 449.78, 136.53333333333333 464.43Q154.14 396.71, 221.86666666666667 414.32Q274.56 381.68, 307.2 434.37Q360.19 402.03, 392.5333333333333 455.02Q444.84 456.13, 443.7333333333333 508.44Q420.23 433.74, 494.9333333333333 410.24Q545.89 410, 546.1333333333333 460.96Q585.94 449.57, 597.3333333333334 489.38Q598.77 439.62, 648.5333333333334 441.06Q663.07 404.39, 699.7333333333335 418.93Q718.69 386.69, 750.9333333333335 405.65Q820.78 390.16, 836.2666666666669 460Q901.68 440.08, 921.6000000000003 505.49Q937.54 470.23, 972.8000000000003 486.16Q960.8 422.96, 1024.0000000000002 410.96z" fill="#356cb1"></path><path d="M1024.0000000000002 560L0 560 L0 529.41Q48.96 527.17, 51.2 576.13Q68.95 542.68, 102.4 560.43Q91.73 498.56, 153.60000000000002 487.88Q218.8 501.88, 204.8 567.07Q253.86 530.79, 290.1333333333333 579.85Q291.71 530.23, 341.3333333333333 531.81Q358.56 497.83, 392.5333333333333 515.06Q402.31 473.64, 443.7333333333333 483.42Q475.28 463.77, 494.9333333333333 495.32Q539.4 488.59, 546.1333333333333 533.06Q580.37 481.96, 631.4666666666667 516.19Q650.99 484.51, 682.6666666666667 504.04Q742.81 478.85, 768.0000000000001 538.99Q824.76 510.41, 853.3333333333335 567.17Q860.17 488.67, 938.6666666666669 495.5Q987.51 459.01, 1024.0000000000002 507.86z" fill="rgba(248, 248, 255, 1)"></path></g><defs><mask id="SvgjsMask1077"><rect width="1024" height="560" fill="#ffffff"></rect></mask><linearGradient x1="50%" y1="0%" x2="50%" y2="100%" gradientUnits="userSpaceOnUse" id="SvgjsLinearGradient1078"><stop stop-color="#0e2a47" offset="0"></stop><stop stop-color="#00459e" offset="1"></stop></linearGradient></defs></svg>