<svg xmlns="http://www.w3.org/2000/svg" version="1.1" xmlns:xlink="http://www.w3.org/1999/xlink" xmlns:svgjs="http://svgjs.com/svgjs" width="1440" height="530" preserveAspectRatio="none" viewBox="0 0 1440 530">
    <g mask="url(&quot;#SvgjsMask1121&quot;)" fill="none">
        <rect width="1440" height="530" x="0" y="0" fill="url(#SvgjsLinearGradient1122)"></rect>
        <path d="M1560 530L0 530 L0 314.41Q41.22 283.63, 72 324.85Q138.17 319.02, 144 385.19Q169.36 338.55, 216 363.91Q232.46 308.38, 288 324.84Q330.58 295.42, 360 338.01Q402.95 308.96, 432 351.91Q474.61 274.52, 552 317.14Q638.46 283.6, 672 370.05Q715.29 341.34, 744 384.63Q768.37 289, 864 313.37Q932.69 262.06, 984 330.75Q1041.88 316.63, 1056 374.52Q1075.55 322.07, 1128 341.62Q1174.47 316.09, 1200 362.56Q1238.67 281.24, 1320 319.91Q1388.76 268.67, 1440 337.43Q1505.89 283.32, 1560 349.21z" fill="#182f5d"></path>
        <path d="M1464 530L0 530 L0 369.91Q60.49 310.4, 120 370.89Q208.29 339.18, 240 427.47Q294.42 361.89, 360 416.32Q380.06 364.38, 432 384.45Q477.97 358.42, 504 404.39Q543.36 323.75, 624 363.1Q666.9 334, 696 376.9Q762.91 371.81, 768 438.72Q819.68 370.4, 888 422.08Q940.09 354.17, 1008 406.26Q1036.39 362.65, 1080 391.05Q1130.25 369.3, 1152 419.55Q1219.9 367.45, 1272 435.35Q1285.04 376.38, 1344 389.42Q1393.16 318.59, 1464 367.75z" fill="#25467d"></path>
        <path d="M1560 530L0 530 L0 432.25Q63.09 423.34, 72 486.42Q114.6 409.02, 192 451.63Q216.85 404.48, 264 429.33Q320.32 413.65, 336 469.98Q402.15 416.13, 456 482.28Q498.57 404.85, 576 447.41Q623.76 375.18, 696 422.94Q752.79 407.74, 768 464.53Q815.76 392.29, 888 440.06Q951.01 431.07, 960 494.08Q988.5 450.58, 1032 479.09Q1057.6 432.69, 1104 458.29Q1180.19 414.48, 1224 490.67Q1249.49 444.16, 1296 469.65Q1317.83 419.48, 1368 441.31Q1410.38 411.69, 1440 454.07Q1513.96 408.03, 1560 482z" fill="#356cb1"></path>
        <path d="M1488 530L0 530 L0 481.1Q71 480.1, 72 551.09Q91.83 498.92, 144 518.75Q165.66 468.41, 216 490.08Q305.96 460.04, 336 550Q379.34 473.34, 456 516.68Q501.93 442.6, 576 488.53Q656.79 449.32, 696 530.12Q716.81 478.93, 768 499.74Q816.72 428.46, 888 477.18Q971.83 441.01, 1008 524.85Q1076.93 473.79, 1128 542.72Q1158.84 453.56, 1248 484.39Q1330.79 447.18, 1368 529.96Q1413.61 455.57, 1488 501.17z" fill="rgba(248, 248, 255, 1)"></path>
    </g>
    <defs>
        <mask id="SvgjsMask1121">
            <rect width="1440" height="530" fill="#ffffff"></rect>
        </mask>
        <linearGradient x1="50%" y1="0%" x2="50%" y2="100%" gradientUnits="userSpaceOnUse" id="SvgjsLinearGradient1122">
            <stop stop-color="#0e2a47" offset="0"></stop>
            <stop stop-color="#00459e" offset="1"></stop>
        </linearGradient>
    </defs>
</svg>