<svg xmlns="http://www.w3.org/2000/svg" version="1.1" xmlns:xlink="http://www.w3.org/1999/xlink" xmlns:svgjs="http://svgjs.com/svgjs" width="481" height="560" preserveAspectRatio="none" viewBox="0 0 481 560"><g mask="url(&quot;#SvgjsMask1135&quot;)" fill="none"><rect width="481" height="560" x="0" y="0" fill="url(#SvgjsLinearGradient1136)"></rect><path d="M505.05 560L0 560 L0 247.76Q53.76 261.43, 40.083333333333336 315.19Q69.59 304.62, 80.16666666666667 334.13Q80.87 294.75, 120.25 295.45Q105.18 256.33, 144.3 241.26Q211.71 268.59, 184.38333333333335 336Q175.82 303.39, 208.43333333333337 294.83Q219.25 265.56, 248.5166666666667 276.38Q243.97 247.78, 272.5666666666667 243.23Q284.84 215.42, 312.65000000000003 227.7Q341.93 216.9, 352.73333333333335 246.18Q390.73 260.13, 376.78333333333336 298.13Q359.44 240.7, 416.8666666666667 223.36Q486.18 268.62, 440.9166666666667 337.93Q432.32 289.25, 481 280.65Q484.69 260.29, 505.05 263.97z" fill="#182f5d"></path><path d="M521.0833333333334 560L0 560 L0 420.14Q-8.02 372.04, 40.083333333333336 364.02Q48.26 332.12, 80.16666666666667 340.3Q106.14 326.19, 120.25 352.17Q165.46 357.29, 160.33333333333334 402.5Q189.5 391.58, 200.41666666666669 420.75Q178.27 374.55, 224.4666666666667 352.4Q212.36 316.25, 248.5166666666667 304.14Q310.45 342.02, 272.5666666666667 403.95Q260.69 368.02, 296.61666666666673 356.14Q340.39 375.86, 320.66666666666674 419.63Q301.14 360.02, 360.75000000000006 340.5Q372.84 312.51, 400.83333333333337 324.6Q413.2 296.89, 440.9166666666667 309.26Q502.16 330.42, 481 391.67Q465.05 335.63, 521.0833333333334 319.68z" fill="#25467d"></path><path d="M497.0333333333334 560L0 560 L0 419.45Q46.81 426.18, 40.083333333333336 472.99Q39.52 448.38, 64.13333333333334 447.81Q55.69 399.28, 104.21666666666667 390.83Q136.64 383.17, 144.3 415.59Q203.03 434.23, 184.38333333333335 492.96Q181.3 449.79, 224.4666666666667 446.7Q227.81 426, 248.5166666666667 429.34Q262.76 403.5, 288.6 417.75Q287.44 392.54, 312.65000000000003 391.37Q342.83 381.47, 352.73333333333335 411.65Q408.07 442.94, 376.78333333333336 498.27Q357.8 455.23, 400.83333333333337 436.25Q392.8 404.17, 424.8833333333334 396.13Q490.27 437.46, 448.9333333333334 502.85Q434.86 464.73, 472.9833333333334 450.66Q459.61 413.24, 497.0333333333334 399.87z" fill="#356cb1"></path><path d="M497.03333333333336 560L0 560 L0 509.34Q34.28 503.54, 40.083333333333336 537.82Q74.6 532.26, 80.16666666666667 566.78Q91.65 538.18, 120.25 549.67Q126.08 531.45, 144.3 537.28Q145.79 514.72, 168.35000000000002 516.2Q168.26 492.06, 192.40000000000003 491.96Q196.52 472.03, 216.45000000000005 476.15Q239.66 475.31, 240.50000000000006 498.52Q255.11 473.04, 280.58333333333337 487.65Q286.69 469.71, 304.6333333333334 475.81Q371.04 502.13, 344.7166666666667 568.54Q333.29 517.03, 384.8 505.61Q397.17 477.89, 424.8833333333333 490.26Q431.6 472.93, 448.93333333333334 479.64Q460.52 467.17, 472.98333333333335 478.76Q496.8 478.53, 497.03333333333336 502.35z" fill="rgba(248, 248, 255, 1)"></path></g><defs><mask id="SvgjsMask1135"><rect width="481" height="560" fill="#ffffff"></rect></mask><linearGradient x1="50%" y1="0%" x2="50%" y2="100%" gradientUnits="userSpaceOnUse" id="SvgjsLinearGradient1136"><stop stop-color="#0e2a47" offset="0"></stop><stop stop-color="#00459e" offset="1"></stop></linearGradient></defs></svg>