<svg xmlns="http://www.w3.org/2000/svg" version="1.1" xmlns:xlink="http://www.w3.org/1999/xlink" xmlns:svgjs="http://svgjs.com/svgjs" width="481" height="380" preserveAspectRatio="none" viewBox="0 0 481 380">
    <g mask="url(&quot;#SvgjsMask1167&quot;)" fill="none">
        <rect width="481" height="380" x="0" y="0" fill="url(#SvgjsLinearGradient1168)"></rect>
        <path d="M497.03333333333336 380L0 380 L0 289.33Q13.7 278.98, 24.050000000000004 292.68Q26.28 270.86, 48.10000000000001 273.09Q62.99 247.89, 88.18333333333334 262.78Q101.81 252.36, 112.23333333333335 265.99Q130.33 260.03, 136.28333333333336 278.13Q163.47 265.23, 176.3666666666667 292.42Q178.55 254.52, 216.45000000000005 256.71Q233.76 249.97, 240.50000000000006 267.28Q273.28 259.97, 280.58333333333337 292.75Q286.34 274.46, 304.6333333333334 280.21Q319.51 255, 344.7166666666667 269.88Q376.46 261.54, 384.8 293.29Q390.61 275.05, 408.85 280.86Q416.32 248.24, 448.93333333333334 255.71Q463.38 246.1, 472.98333333333335 260.55Q496.28 259.8, 497.03333333333336 283.09z" fill="#182f5d"></path>
        <path d="M489.01666666666665 380L0 380 L0 302.42Q23.92 286.26, 40.083333333333336 310.18Q60.05 306.1, 64.13333333333334 326.07Q68.33 290.18, 104.21666666666667 294.37Q111.01 277.12, 128.26666666666668 283.91Q160.27 291.86, 152.3166666666667 323.86Q155.5 286.96, 192.40000000000003 290.15Q212.77 286.47, 216.45000000000005 306.84Q245.54 295.84, 256.53333333333336 324.93Q264.12 308.46, 280.58333333333337 316.05Q284.25 279.64, 320.6666666666667 283.31Q353.19 275.75, 360.75 308.28Q366.96 290.44, 384.8 296.65Q394.99 282.79, 408.85 292.98Q441.35 285.4, 448.93333333333334 317.9Q463 291.89, 489.01666666666665 305.96z" fill="#25467d"></path>
        <path d="M505.04999999999995 380L0 380 L0 319.63Q32.5 328.08, 24.050000000000004 360.58Q43.24 339.68, 64.13333333333334 358.87Q66.43 337.12, 88.18333333333334 339.41Q90.64 317.82, 112.23333333333335 320.27Q147.55 315.5, 152.3166666666667 350.81Q162.51 320.92, 192.40000000000003 331.12Q198.41 313.08, 216.45000000000005 319.08Q240.71 303.26, 256.53333333333336 327.52Q281.9 312.8, 296.6166666666667 338.16Q325.83 327.29, 336.7 356.51Q348.23 343.98, 360.75 355.51Q359.23 329.94, 384.8 328.42Q399.71 303.25, 424.8833333333333 318.16Q456.15 309.34, 464.96666666666664 340.61Q493.77 329.33, 505.04999999999995 358.14z" fill="#356cb1"></path>
        <path d="M489.01666666666665 380L0 380 L0 365.17Q14.41 355.54, 24.050000000000004 369.95Q42.06 363.91, 48.10000000000001 381.91Q54.22 347.94, 88.18333333333334 354.06Q107.69 349.51, 112.23333333333335 369.02Q129.34 362.08, 136.28333333333336 379.18Q153.88 372.73, 160.33333333333337 390.33Q162.08 351.99, 200.4166666666667 353.74Q220.14 333.38, 240.50000000000006 353.11Q264.48 353.04, 264.55000000000007 377.01Q291.84 364.22, 304.6333333333334 391.51Q308.19 354.98, 344.7166666666667 358.53Q373.77 347.5, 384.8 376.56Q402.3 370.01, 408.85 387.51Q409.84 348.42, 448.93333333333334 349.41Q481.42 341.81, 489.01666666666665 374.29z" fill="rgba(248, 248, 255, 1)"></path>
    </g>
    <defs>
        <mask id="SvgjsMask1167">
            <rect width="481" height="380" fill="#ffffff"></rect>
        </mask>
        <linearGradient x1="50%" y1="0%" x2="50%" y2="100%" gradientUnits="userSpaceOnUse" id="SvgjsLinearGradient1168">
            <stop stop-color="#0e2a47" offset="0"></stop>
            <stop stop-color="#00459e" offset="1"></stop>
        </linearGradient>
    </defs>
</svg>