<svg xmlns="http://www.w3.org/2000/svg" version="1.1" xmlns:xlink="http://www.w3.org/1999/xlink" xmlns:svgjs="http://svgjs.com/svgjs" width="769" height="550" preserveAspectRatio="none" viewBox="0 0 769 550">
    <g mask="url(&quot;#SvgjsMask1201&quot;)" fill="none">
        <rect width="769" height="550" x="0" y="0" fill="url(#SvgjsLinearGradient1202)"></rect>
        <path d="M769.0000000000001 550L0 550 L0 311.62Q-5.18 267.99, 38.45 262.8Q107.33 267.59, 102.53333333333333 336.47Q93.93 289.42, 140.98333333333335 280.82Q167.12 242.87, 205.06666666666666 269.01Q261.18 261.04, 269.15 317.16Q289.73 273.65, 333.2333333333333 294.23Q341.82 264.37, 371.6833333333333 272.95Q397.22 234.41, 435.7666666666666 259.95Q482.57 242.67, 499.8499999999999 289.48Q540.97 266.52, 563.9333333333333 307.64Q566.82 272.07, 602.3833333333333 274.96Q660.99 269.48, 666.4666666666667 328.09Q700.72 323.89, 704.9166666666667 358.14Q709.26 298.4, 769.0000000000001 302.75z" fill="#182f5d"></path>
        <path d="M807.4500000000002 550L0 550 L0 331.56Q43.89 311.36, 64.08333333333333 355.25Q121.44 374.15, 102.53333333333333 431.51Q93.43 383.95, 140.98333333333335 374.85Q158.45 328.23, 205.06666666666666 345.7Q244.92 321.47, 269.15 361.33Q329.45 357.55, 333.2333333333333 417.85Q347.44 367.97, 397.3166666666666 382.18Q399.37 345.78, 435.7666666666666 347.83Q461.43 309.41, 499.8499999999999 335.08Q531.88 328.66, 538.3 360.69Q580.29 338.59, 602.3833333333333 380.58Q639.25 379, 640.8333333333334 415.86Q681.64 392.58, 704.9166666666667 433.39Q710.03 400.05, 743.3666666666668 405.17Q744.44 342.16, 807.4500000000002 343.24z" fill="#25467d"></path>
        <path d="M807.4500000000002 550L0 550 L0 446.59Q39.09 447.23, 38.45 486.32Q78.94 462.73, 102.53333333333333 503.22Q103.81 466.05, 140.98333333333335 467.33Q143.62 405.88, 205.06666666666666 408.52Q271.49 410.86, 269.15 477.29Q312.56 456.61, 333.2333333333333 500.02Q304.73 433.06, 371.6833333333333 404.56Q416.6 385.4, 435.7666666666666 430.32Q481.41 411.88, 499.8499999999999 457.53Q528.22 447.45, 538.3 475.83Q538.34 437.42, 576.75 437.47Q593.75 390.38, 640.8333333333334 407.38Q679.97 382.43, 704.9166666666667 421.56Q751.55 429.74, 743.3666666666668 476.37Q780.69 449.61, 807.4500000000002 486.93z" fill="#356cb1"></path>
        <path d="M769.0000000000001 550L0 550 L0 543.14Q-13.01 491.68, 38.45 478.68Q80.44 456.58, 102.53333333333333 498.57Q146.97 478.92, 166.61666666666667 523.35Q193.04 511.32, 205.06666666666666 537.75Q236.17 530.4, 243.51666666666665 561.5Q257.41 511.31, 307.59999999999997 525.2Q313.49 492.65, 346.04999999999995 498.54Q358.63 472.67, 384.49999999999994 485.25Q430.03 466.69, 448.58333333333326 512.22Q462.06 487.25, 487.03333333333325 500.73Q497.64 472.89, 525.4833333333332 483.49Q572.76 492.32, 563.9333333333333 539.6Q597.3 534.52, 602.3833333333333 567.89Q608.22 509.64, 666.4666666666667 515.47Q675.77 486.32, 704.9166666666667 495.63Q730.1 456.73, 769.0000000000001 481.92z" fill="rgba(248, 248, 255, 1)"></path>
    </g>
    <defs>
        <mask id="SvgjsMask1201">
            <rect width="769" height="550" fill="#ffffff"></rect>
        </mask>
        <linearGradient x1="50%" y1="0%" x2="50%" y2="100%" gradientUnits="userSpaceOnUse" id="SvgjsLinearGradient1202">
            <stop stop-color="#0e2a47" offset="0"></stop>
            <stop stop-color="#00459e" offset="1"></stop>
        </linearGradient>
    </defs>
</svg>