<svg xmlns="http://www.w3.org/2000/svg" version="1.1" xmlns:xlink="http://www.w3.org/1999/xlink" xmlns:svgjs="http://svgjs.com/svgjs" width="769" height="560" preserveAspectRatio="none" viewBox="0 0 769 560"><g mask="url(&quot;#SvgjsMask1213&quot;)" fill="none"><rect width="769" height="560" x="0" y="0" fill="url(#SvgjsLinearGradient1214)"></rect><path d="M769.0000000000002 560L0 560 L0 391.33Q-7.25 319.99, 64.08333333333333 312.74Q101.5 311.71, 102.53333333333333 349.13Q142.16 324.67, 166.61666666666667 364.3Q172.42 331.65, 205.06666666666666 337.45Q214.2 308.13, 243.51666666666665 317.27Q268.7 304, 281.96666666666664 329.19Q332.65 315.79, 346.04999999999995 366.47Q392.17 348.51, 410.13333333333327 394.63Q423.33 369.38, 448.58333333333326 382.57Q455.6 325.5, 512.6666666666666 332.52Q521.18 302.58, 551.1166666666667 311.09Q609.29 330.81, 589.5666666666667 388.99Q577.05 338.02, 628.0166666666668 325.5Q641.83 300.87, 666.4666666666668 314.68Q698.35 308.11, 704.9166666666669 339.99Q742.49 313.48, 769.0000000000002 351.05z" fill="#182f5d"></path><path d="M781.8166666666668 560L0 560 L0 388.61Q65.09 389.62, 64.08333333333333 454.71Q60.95 413.13, 102.53333333333333 409.99Q114.86 383.87, 140.98333333333335 396.2Q167.28 358.41, 205.06666666666666 384.7Q260.04 375.59, 269.15 430.57Q270.52 393.49, 307.59999999999997 394.86Q318.6 367.41, 346.04999999999995 378.41Q382.32 350.6, 410.13333333333327 386.87Q457.76 396.05, 448.58333333333326 443.67Q487.27 418.28, 512.6666666666666 456.97Q530.32 410.54, 576.75 428.19Q571.23 384.22, 615.2 378.7Q661.1 386.15, 653.6500000000001 432.05Q690.74 405.05, 717.7333333333335 442.14Q736.13 396.45, 781.8166666666668 414.85z" fill="#25467d"></path><path d="M769.0000000000001 560L0 560 L0 512.59Q9.34 457.85, 64.08333333333333 467.19Q71.56 436.21, 102.53333333333333 443.69Q155.26 457.96, 140.98333333333335 510.69Q143.81 449.43, 205.06666666666666 452.26Q216.28 425.02, 243.51666666666665 436.24Q300.38 454.65, 281.96666666666664 511.52Q270.2 461.31, 320.41666666666663 449.54Q333.02 423.69, 358.8666666666666 436.29Q380.43 419.4, 397.3166666666666 440.96Q429.52 434.71, 435.7666666666666 466.92Q484.93 452, 499.8499999999999 501.16Q508.12 445.35, 563.9333333333333 453.62Q576.59 427.83, 602.3833333333333 440.49Q646.88 420.9, 666.4666666666667 465.39Q715.02 449.86, 730.5500000000001 498.42Q741.95 471.37, 769.0000000000001 482.76z" fill="#356cb1"></path><path d="M794.6333333333334 560L0 560 L0 522.9Q41.42 525.87, 38.45 567.3Q37.35 502.11, 102.53333333333333 501.01Q162.27 496.66, 166.61666666666667 556.39Q179.12 504.81, 230.7 517.32Q244.32 492.49, 269.15 506.11Q317.85 490.73, 333.2333333333333 539.43Q357.05 499.16, 397.3166666666666 522.97Q404.38 491.58, 435.7666666666666 498.64Q474.92 473.71, 499.8499999999999 512.86Q551.35 500.27, 563.9333333333333 551.77Q602.73 526.48, 628.0166666666667 565.28Q640.2 513.38, 692.1 525.56Q733.52 502.9, 756.1833333333334 544.32Q788.26 537.95, 794.6333333333334 570.03z" fill="rgba(248, 248, 255, 1)"></path></g><defs><mask id="SvgjsMask1213"><rect width="769" height="560" fill="#ffffff"></rect></mask><linearGradient x1="50%" y1="0%" x2="50%" y2="100%" gradientUnits="userSpaceOnUse" id="SvgjsLinearGradient1214"><stop stop-color="#0e2a47" offset="0"></stop><stop stop-color="#00459e" offset="1"></stop></linearGradient></defs></svg>